<?xml version="1.0" standalone="no"?>
<!DOCTYPE svg PUBLIC "-//W3C//DTD SVG 20010904//EN"
 "http://www.w3.org/TR/2001/REC-SVG-20010904/DTD/svg10.dtd">
<svg version="1.0" xmlns="http://www.w3.org/2000/svg"
 width="512.000000pt" height="512.000000pt" viewBox="0 0 512.000000 512.000000"
 preserveAspectRatio="xMidYMid meet">
<metadata>
Created by potrace 1.14, written by Peter Selinger 2001-2017
</metadata>
<g transform="translate(0.000000,512.000000) scale(0.100000,-0.100000)"
fill="#000000" stroke="none">
<path d="M2179 5100 c-44 -13 -77 -40 -127 -104 -114 -144 -219 -316 -315
-516 -59 -124 -127 -286 -127 -306 0 -19 188 -203 280 -275 93 -72 205 -149
216 -149 4 0 15 -6 23 -14 27 -23 220 -120 326 -164 124 -50 325 -117 383
-126 l42 -6 0 152 0 153 -65 98 c-57 87 -157 277 -198 377 -28 67 -75 225 -92
310 -21 106 -23 119 -41 319 -7 86 -37 153 -90 200 -62 54 -142 74 -215 51z"/>
<path d="M697 4805 c-80 -27 -101 -54 -170 -215 -51 -117 -125 -394 -155 -580
-41 -247 -47 -328 -47 -600 0 -288 4 -321 71 -640 21 -99 122 -350 195 -488
42 -77 181 -289 216 -327 10 -11 39 -46 65 -77 145 -171 405 -396 571 -492 26
-15 47 -31 47 -35 0 -3 -87 -29 -192 -58 -628 -168 -1168 -316 -1201 -330 -61
-26 -92 -75 -92 -143 0 -68 21 -102 124 -209 214 -221 567 -427 871 -508 30
-8 62 -16 70 -19 38 -10 149 -33 185 -38 23 -4 52 -9 65 -11 14 -3 91 -8 172
-12 158 -6 170 -3 239 55 13 11 182 146 374 300 l350 279 406 1 c547 0 609 6
842 83 342 114 627 332 836 641 104 155 208 422 237 608 3 25 9 56 12 70 3 14
7 424 9 912 l3 888 125 187 c68 104 128 193 133 198 5 6 20 30 34 55 45 78 21
161 -53 186 -36 12 -1109 12 -1178 0 -296 -51 -552 -284 -635 -576 -25 -91
-26 -112 -26 -489 l0 -363 -52 6 c-124 15 -148 19 -243 38 -257 51 -495 134
-760 263 -173 85 -211 108 -383 230 -144 103 -343 294 -439 421 -123 166 -236
372 -287 526 -38 114 -61 161 -99 200 -62 64 -161 90 -240 63z m3382 -971 c39
-26 50 -39 67 -80 42 -100 -36 -214 -146 -214 -133 0 -209 161 -122 259 52 59
140 74 201 35z"/>
</g>
</svg>
